<svg id="visual" viewBox="0 0 900 600" width="900" height="600" xmlns="http://www.w3.org/2000/svg" xmlns:xlink="http://www.w3.org/1999/xlink" version="1.1"><rect x="0" y="0" width="900" height="600" fill="#8755a8"></rect><path d="M504 600L489 600L489 514L465 514L465 429L559 429L559 343L443 343L443 257L521 257L521 171L499 171L499 86L506 86L506 0L900 0L900 86L900 86L900 171L900 171L900 257L900 257L900 343L900 343L900 429L900 429L900 514L900 514L900 600L900 600Z" fill="#b70000"></path><path d="M670 600L664 600L664 514L601 514L601 429L562 429L562 343L577 343L577 257L619 257L619 171L554 171L554 86L543 86L543 0L900 0L900 86L900 86L900 171L900 171L900 257L900 257L900 343L900 343L900 429L900 429L900 514L900 514L900 600L900 600Z" fill="#ffffff"></path><path d="M718 600L781 600L781 514L772 514L772 429L756 429L756 343L698 343L698 257L741 257L741 171L715 171L715 86L809 86L809 0L900 0L900 86L900 86L900 171L900 171L900 257L900 257L900 343L900 343L900 429L900 429L900 514L900 514L900 600L900 600Z" fill="#b70000"></path></svg>